# xmcd
#
# Track frame offsets:
#	150
#	16089
#	36410
#	54388
#	72160
#	93871
#	111046
#	126591
#
# Disc length: 1865 seconds
#
# Revision: 0
# Processed by: cddbd v1.5.2PL0 Copyright (c) Steve Scherf et al.
# Submitted via: audiograbber 1.83.01
#
DISCID=65074708
DTITLE=VALORY MUSIC - SUMMER SAMPLER
DYEAR=2012
DGENRE=Country
TTITLE0=THE MAVERICKS - BORN TO BE BLUE
TTITLE1=THE MAVERICKS - COME UNTO ME
TTITLE2=JUSTIN MOORE - 'TILL MY LAST DAY
TTITLE3=JUSTIN MOORE - FLYIN' DOWN A BACK ROAD
TTITLE4=BRANTLEY GILBERT - YOU DON'T KNOW HER LIKE I DO
TTITLE5=BRANTLEY GILBERT - KICK IT IN THE STICKS
TTITLE6=THOMAS RHETT - SOMETHING TO DO WITH MY HANDS
TTITLE7=THOMAS RHETT - WHATCHA GOT IN THAT CUP (Rough Mix)
EXTD=
EXTT0=
EXTT1=
EXTT2=
EXTT3=
EXTT4=
EXTT5=
EXTT6=
EXTT7=
PLAYORDER=
